<mxfile host="app.diagrams.net" modified="2021-12-13T15:43:26.937Z" agent="5.0 (Windows NT 10.0; Win64; x64) AppleWebKit/537.36 (KHTML, like Gecko) Chrome/96.0.4664.93 Safari/537.36" etag="iyuv-ynsDUDAYfPqOEiL" version="15.9.4" type="github">
  <diagram name="Page-1" id="c7558073-3199-34d8-9f00-42111426c3f3">
    <mxGraphModel dx="1422" dy="802" grid="1" gridSize="10" guides="1" tooltips="1" connect="1" arrows="1" fold="1" page="1" pageScale="1" pageWidth="826" pageHeight="1169" background="none" math="0" shadow="0">
      <root>
        <mxCell id="0" />
        <mxCell id="1" parent="0" />
        <mxCell id="X-37stWm01bm9PsuEd_Q-102" style="edgeStyle=orthogonalEdgeStyle;rounded=0;orthogonalLoop=1;jettySize=auto;html=1;entryX=0.75;entryY=0;entryDx=0;entryDy=0;fontSize=15;" edge="1" parent="1" source="X-37stWm01bm9PsuEd_Q-96" target="X-37stWm01bm9PsuEd_Q-100">
          <mxGeometry relative="1" as="geometry" />
        </mxCell>
        <mxCell id="X-37stWm01bm9PsuEd_Q-103" style="edgeStyle=orthogonalEdgeStyle;rounded=0;orthogonalLoop=1;jettySize=auto;html=1;entryX=0.25;entryY=0;entryDx=0;entryDy=0;fontSize=15;" edge="1" parent="1" source="X-37stWm01bm9PsuEd_Q-96" target="X-37stWm01bm9PsuEd_Q-101">
          <mxGeometry relative="1" as="geometry" />
        </mxCell>
        <mxCell id="X-37stWm01bm9PsuEd_Q-96" value="Load Balancer" style="rounded=1;whiteSpace=wrap;html=1;fillColor=#ffe6cc;strokeColor=#d79b00;strokeWidth=2;fontStyle=1" vertex="1" parent="1">
          <mxGeometry x="140" y="220" width="550" height="40" as="geometry" />
        </mxCell>
        <mxCell id="X-37stWm01bm9PsuEd_Q-98" value="" style="edgeStyle=orthogonalEdgeStyle;rounded=0;orthogonalLoop=1;jettySize=auto;html=1;" edge="1" parent="1" source="X-37stWm01bm9PsuEd_Q-97" target="X-37stWm01bm9PsuEd_Q-96">
          <mxGeometry relative="1" as="geometry" />
        </mxCell>
        <mxCell id="X-37stWm01bm9PsuEd_Q-99" value="" style="edgeStyle=orthogonalEdgeStyle;rounded=0;orthogonalLoop=1;jettySize=auto;html=1;" edge="1" parent="1" source="X-37stWm01bm9PsuEd_Q-97" target="X-37stWm01bm9PsuEd_Q-96">
          <mxGeometry relative="1" as="geometry" />
        </mxCell>
        <mxCell id="X-37stWm01bm9PsuEd_Q-97" value="User" style="shape=umlActor;verticalLabelPosition=top;verticalAlign=bottom;html=1;strokeWidth=2;fontStyle=1;labelPosition=center;align=center;" vertex="1" parent="1">
          <mxGeometry x="400" y="90" width="30" height="60" as="geometry" />
        </mxCell>
        <mxCell id="X-37stWm01bm9PsuEd_Q-101" value="Docker Host" style="whiteSpace=wrap;html=1;aspect=fixed;strokeWidth=2;labelPosition=center;verticalLabelPosition=top;align=center;verticalAlign=bottom;fontStyle=1;fontSize=15;" vertex="1" parent="1">
          <mxGeometry x="430" y="290" width="260" height="260" as="geometry" />
        </mxCell>
        <mxCell id="X-37stWm01bm9PsuEd_Q-100" value="Docker Host" style="whiteSpace=wrap;html=1;aspect=fixed;strokeWidth=2;labelPosition=center;verticalLabelPosition=top;align=center;verticalAlign=bottom;fontStyle=1;fontSize=15;" vertex="1" parent="1">
          <mxGeometry x="140" y="290" width="260" height="260" as="geometry" />
        </mxCell>
        <mxCell id="X-37stWm01bm9PsuEd_Q-104" value="Container" style="swimlane;horizontal=0;fontSize=11;strokeWidth=2;startSize=23;" vertex="1" parent="1">
          <mxGeometry x="150" y="310" width="70" height="60" as="geometry" />
        </mxCell>
        <mxCell id="X-37stWm01bm9PsuEd_Q-105" value="Container" style="swimlane;horizontal=0;fontSize=11;strokeWidth=2;startSize=23;" vertex="1" parent="1">
          <mxGeometry x="310" y="470" width="70" height="60" as="geometry" />
        </mxCell>
        <mxCell id="X-37stWm01bm9PsuEd_Q-106" value="Container" style="swimlane;horizontal=0;fontSize=11;strokeWidth=2;startSize=23;" vertex="1" parent="1">
          <mxGeometry x="310" y="310" width="70" height="60" as="geometry" />
        </mxCell>
        <mxCell id="X-37stWm01bm9PsuEd_Q-107" value="Container" style="swimlane;horizontal=0;fontSize=11;strokeWidth=2;startSize=23;" vertex="1" parent="1">
          <mxGeometry x="150" y="470" width="70" height="60" as="geometry" />
        </mxCell>
        <mxCell id="X-37stWm01bm9PsuEd_Q-109" value="Container" style="swimlane;horizontal=0;fontSize=11;strokeWidth=2;startSize=23;" vertex="1" parent="1">
          <mxGeometry x="445" y="310" width="70" height="60" as="geometry" />
        </mxCell>
        <mxCell id="X-37stWm01bm9PsuEd_Q-110" value="Container" style="swimlane;horizontal=0;fontSize=11;strokeWidth=2;startSize=23;" vertex="1" parent="1">
          <mxGeometry x="605" y="470" width="70" height="60" as="geometry" />
        </mxCell>
        <mxCell id="X-37stWm01bm9PsuEd_Q-111" value="Container" style="swimlane;horizontal=0;fontSize=11;strokeWidth=2;startSize=23;" vertex="1" parent="1">
          <mxGeometry x="605" y="310" width="70" height="60" as="geometry" />
        </mxCell>
        <mxCell id="X-37stWm01bm9PsuEd_Q-112" value="Container" style="swimlane;horizontal=0;fontSize=11;strokeWidth=2;startSize=23;" vertex="1" parent="1">
          <mxGeometry x="445" y="470" width="70" height="60" as="geometry" />
        </mxCell>
      </root>
    </mxGraphModel>
  </diagram>
</mxfile>
